<?xml version="1.0" encoding="UTF-8" standalone="no"?>
<!DOCTYPE svg PUBLIC "-//W3C//DTD SVG 1.1//EN"
 "http://www.w3.org/Graphics/SVG/1.1/DTD/svg11.dtd">
<!-- Generated by graphviz version 2.50.0 (20211204.2007)
 -->
<!-- Pages: 1 -->
<svg width="230pt" height="147pt"
 viewBox="0.00 0.00 230.00 147.00" xmlns="http://www.w3.org/2000/svg" xmlns:xlink="http://www.w3.org/1999/xlink">
<g id="graph0" class="graph" transform="scale(1 1) rotate(0) translate(4 143)">
<polygon fill="white" stroke="transparent" points="-4,4 -4,-143 226,-143 226,4 -4,4"/>
<!-- fake -->
<g id="node1" class="node">
<title>fake</title>
</g>
<!-- A -->
<g id="node2" class="node">
<title>A</title>
<ellipse fill="none" stroke="black" cx="113" cy="-70" rx="18" ry="18"/>
<ellipse fill="none" stroke="black" cx="113" cy="-70" rx="22" ry="22"/>
<text text-anchor="middle" x="113" y="-66.3" font-family="Times,serif" font-size="14.00">A</text>
</g>
<!-- fake&#45;&gt;A -->
<g id="edge1" class="edge">
<title>fake&#45;&gt;A</title>
<path fill="none" stroke="black" stroke-width="2" d="M54.12,-70C62.54,-70 71.96,-70 80.72,-70"/>
<polygon fill="black" stroke="black" stroke-width="2" points="80.96,-73.5 90.96,-70 80.96,-66.5 80.96,-73.5"/>
</g>
<!-- C -->
<g id="node3" class="node">
<title>C</title>
<ellipse fill="none" stroke="black" cx="200" cy="-117" rx="18" ry="18"/>
<ellipse fill="none" stroke="black" cx="200" cy="-117" rx="22" ry="22"/>
<text text-anchor="middle" x="200" y="-113.3" font-family="Times,serif" font-size="14.00">C</text>
</g>
<!-- A&#45;&gt;C -->
<g id="edge4" class="edge">
<title>A&#45;&gt;C</title>
<path fill="none" stroke="black" d="M132.86,-80.43C144.28,-86.74 159.03,-94.9 171.7,-101.9"/>
<polygon fill="black" stroke="black" points="170.04,-104.98 180.48,-106.76 173.42,-98.86 170.04,-104.98"/>
<text text-anchor="middle" x="156.5" y="-97.8" font-family="Times,serif" font-size="14.00">a</text>
</g>
<!-- B -->
<g id="node4" class="node">
<title>B</title>
<ellipse fill="none" stroke="black" cx="200" cy="-22" rx="18" ry="18"/>
<ellipse fill="none" stroke="black" cx="200" cy="-22" rx="22" ry="22"/>
<text text-anchor="middle" x="200" y="-18.3" font-family="Times,serif" font-size="14.00">B</text>
</g>
<!-- A&#45;&gt;B -->
<g id="edge3" class="edge">
<title>A&#45;&gt;B</title>
<path fill="none" stroke="black" d="M132.44,-59.58C143.92,-53.11 158.88,-44.66 171.71,-37.41"/>
<polygon fill="black" stroke="black" points="173.61,-40.36 180.59,-32.39 170.16,-34.26 173.61,-40.36"/>
<text text-anchor="middle" x="156.5" y="-50.8" font-family="Times,serif" font-size="14.00">b</text>
</g>
<!-- B&#45;&gt;B -->
<g id="edge2" class="edge">
<title>B&#45;&gt;B</title>
<path fill="none" stroke="black" d="M192.32,-42.99C191.37,-53.09 193.93,-62 200,-62 203.89,-62 206.34,-58.34 207.35,-53.06"/>
<polygon fill="black" stroke="black" points="210.85,-53.1 207.68,-42.99 203.85,-52.87 210.85,-53.1"/>
<text text-anchor="middle" x="200" y="-65.8" font-family="Times,serif" font-size="14.00">b</text>
</g>
</g>
</svg>
